<svg xmlns="http://www.w3.org/2000/svg" viewBox="0 0 240 240" role="img" aria-labelledby="title desc">
  <title id="title">Agenda</title>
  <desc id="desc">Logo generico para a aplicacao de agenda.</desc>
  <defs>
    <linearGradient id="g" x1="0%" x2="100%" y1="0%" y2="100%">
      <stop offset="0%" stop-color="#d9463a" />
      <stop offset="100%" stop-color="#f59e0b" />
    </linearGradient>
  </defs>
  <rect width="240" height="240" rx="56" fill="url(#g)" />
  <path d="M60 78c0-9.941 8.059-18 18-18h84c9.941 0 18 8.059 18 18v84c0 9.941-8.059 18-18 18H78c-9.941 0-18-8.059-18-18V78z" fill="#fff" opacity=".18"/>
  <path d="M78 58h18v26H78zM144 58h18v26h-18z" fill="#fff"/>
  <rect x="56" y="78" width="128" height="102" rx="18" fill="#fff"/>
  <rect x="56" y="90" width="128" height="24" rx="12" fill="#1f2937" opacity=".1"/>
  <path d="M86 134h28v28H86zM126 134h28v28h-28z" fill="#f59e0b" opacity=".75"/>
  <path d="M86 102h68" stroke="#334155" stroke-linecap="round" stroke-width="10"/>
  <path d="M86 174h68" stroke="#334155" stroke-linecap="round" stroke-width="10"/>
</svg>
